# AST/ASF file generated using VICON BodyLanguage
# -----------------------------------------------
:version 1.10
:name VICON
:units
  mass 1.0
  length 0.45
  angle deg
:documentation
   .ast/.asf automatically generated from VICON data using
   VICON BodyBuilder and BodyLanguage model FoxedUp or BRILLIANT.MOD
:root
   order TX TY TZ RX RY RZ
   axis XYZ
   position 0 0 0  
   orientation 0 0 0 
:bonedata
  begin
     id 1 
     name lhipjoint
     direction 0.630082 -0.636569 0.44472 
     length 2.82754 
     axis 0 0 0  XYZ
  end
  begin
     id 2 
     name lfemur
     direction 0.34202 -0.939693 0  
     length 7.26371  
     axis 0 0 20  XYZ
    dof rx ry rz
    limits (-160.0 20.0)
           (-70.0 70.0)
           (-60.0 70.0)
  end
  begin
     id 3 
     name ltibia
     direction 0.34202 -0.939693 0   
     length 7.88616   
     axis 0 0 20   XYZ
    dof rx
    limits (-10.0 170.0)
  end
  begin
     id 4 
     name lfoot
     direction 0.0603448 -0.165796 0.984312   
     length 1.77861   
     axis -90 7.62852e-016 20   XYZ
    dof rx rz
    limits (-45.0 90.0)
           (-70.0 20.0)
  end
  begin
     id 5 
     name ltoes
     direction 1.53577e-011 -4.21876e-011 1   
     length 0.902235   
     axis -90 7.62852e-016 20   XYZ
    dof rx
    limits (-90.0 20.0)
  end
  begin
     id 6 
     name rhipjoint
     direction -0.656778 -0.61817 0.431866   
     length 2.9117  
     axis 0 0 0  XYZ 
  end
  begin
     id 7 
     name rfemur
     direction -0.34202 -0.939693 0   
     length 6.81603   
     axis 0 0 -20   XYZ
    dof rx ry rz
    limits (-160.0 20.0)
           (-70.0 70.0)
           (-70.0 60.0)
  end
  begin
     id 8 
     name rtibia
     direction -0.34202 -0.939693 0   
     length 8.05997   
     axis 0 0 -20   XYZ
    dof rx
    limits (-10.0 170.0)
 end
 begin
     id 9 
     name rfoot
     direction -0.0862404 -0.236944 0.967688   
     length 1.84899  
     axis -90 -7.62852e-016 -20   XYZ
    dof rx rz
    limits (-45.0 90.0)
           (-20.0 70.0)
  end
  begin
     id 10 
     name rtoes
     direction -1.53561e-011 -4.21798e-011 1   
     length 0.931579   
     axis -90 -7.62852e-016 -20   XYZ
    dof rx
    limits (-90.0 20.0)
  end
  begin
     id 11 
     name lowerback
     direction -0.0110203 0.991769 -0.127564   
     length 2.05686   
     axis 0 0 0   XYZ
    dof rx ry rz
    limits (-20.0 45.0)
           (-30.0 30.0)
           (-30.0 30.0)
  end
  begin
     id 12 
     name upperback
     direction 0.0109719 0.99993 -0.00432479   
     length 2.06234   
     axis 0 0 0   XYZ
    dof rx ry rz
    limits (-20.0 45.0)
           (-30.0 30.0)
           (-30.0 30.0)
  end
  begin
     id 13 
     name thorax
     direction 0.0173308 0.998351 0.0547306   
     length 2.09856   
     axis 0 0 0   XYZ
    dof rx ry rz
    limits (-20.0 45.0)
           (-30.0 30.0)
           (-30.0 30.0)
  end
  begin
     id 14 
     name lowerneck
     direction -0.0311736 0.989033 0.144366   
     length 1.98151   
     axis 0 0 0   XYZ
    dof rx ry rz
    limits (-20.0 45.0)
           (-30.0 30.0)
           (-30.0 30.0)
  end
  begin
     id 15 
     name upperneck
     direction 0.0421057 0.975772 -0.214698   
     length 2.01457   
     axis 0 0 0   XYZ
    dof rx ry rz
    limits (-20.0 45.0)
           (-30.0 30.0)
           (-30.0 30.0)
  end
  begin
     id 16
     name head
     direction 0.0136911 0.995958 -0.0887718  
     length 2.03562  
     axis 0 0 0   XYZ
    dof rx ry rz
    limits (-20.0 45.0)
           (-30.0 30.0)
           (-30.0 30.0)
  end
  begin
     id 17 
     name lclavicle
     direction 0.915335 0.396201 0.0720134  
     length 4.16217  
     axis 0 0 0   XYZ
    dof ry rz
    limits (-20.0 10.0)
           (0.0 20.0)
  end
  begin
     id 18 
     name lhumerus
     direction 1 -4.48965e-011 6.383e-018   
     length 4.93042   
     axis -180 -30 -90   XYZ
    dof rx ry rz
    limits (-60.0 90.0)
           (-90.0 90.0)
           (-90.0 90.0)
  end
  begin
     id 19
     name lradius
     direction 1 -4.48972e-011 8.8689e-027   
     length 3.68177   
     axis -180 -30 -90   XYZ
    dof rx
    limits (-10.0 170.0)
  end
  begin
     id 20
     name lwrist
     direction 1 -4.48953e-011 1.17971e-026   
     length 1.84089   
     axis -7.69454e-015 90 90   XYZ
    dof ry
    limits (-180.0 0.0)
 end
  begin
     id 21 
     name lhand
     direction 1 -4.49027e-011 2.35802e-026   
     length 0.721479   
     axis -1.50533e-014 90 90   XYZ
    dof rx rz
    limits (-90.0 90.0)
           (-45.0 45.0)
  end
  begin
     id 22 
     name lfingers
     direction 1 -4.48915e-011 4.72027e-026   
     length 0.581675   
     axis -3.01059e-014 90 90   XYZ
    dof rx
    limits (0.0 90.0)
  end
  begin
     id 23
     name lthumb
     direction 0.707107 -6.34948e-011 0.707107   
     length 0.835172   
     axis -90 45 -5.12164e-014   XYZ
    dof rx rz
    limits (-45.0 45.0)
           (-45.0 45.0)
  end
  begin
     id 24 
     name rclavicle
     direction -0.882781 0.469197 0.0234974   
     length 3.95647  
     axis 0 0 0   XYZ 
    dof ry rz
    limits (-10.0 20.0)
           (-20.0 0.0)
  end
  begin
     id 25 
     name rhumerus
     direction -1 -4.48965e-011 -1.54906e-018  
     length 5.07905   
     axis -180 30 90   XYZ
    dof rx ry rz
    limits (-90.0 60.0)
           (-90.0 90.0)
           (-90.0 90.0)
  end
  begin
     id 26 
     name rradius
     direction -1 -4.48972e-011 5.47489e-027   
     length 3.54394   
     axis -180 30 90   XYZ
    dof rx
    limits (-10.0 170.0)
  end
  begin
     id 27 
     name rwrist
     direction -1 -4.48955e-011 1.17969e-026   
     length 1.77197   
     axis -7.69454e-015 -90 -90   XYZ
    dof ry
    limits (-180.0 0.0)
  end
  begin
     id 28
     name rhand
     direction -1 -4.48982e-011 2.35888e-026   
     length 0.681156   
     axis -1.50533e-014 -90 -90   XYZ
    dof rx rz
    limits (-90.0 90.0)
           (-45.0 45.0)
  end
  begin
     id 29
     name rfingers
     direction -1 -4.48955e-011 4.71877e-026   
     length 0.549165   
     axis -3.01059e-014 -90 -90   XYZ
    dof rx
    limits (0.0 90.0)
  end
  begin
     id 30
     name rthumb
     direction -0.707107 -6.3491e-011 0.707107   
     length 0.788495   
     axis -90 -45 5.12164e-014   XYZ
    dof rx rz
    limits (-45.0 45.0)
           (-45.0 45.0)
  end
:hierarchy
  begin
    root lhipjoint rhipjoint lowerback
    lhipjoint lfemur
    lfemur ltibia
    ltibia lfoot
    lfoot ltoes
    rhipjoint rfemur
    rfemur rtibia
    rtibia rfoot
    rfoot rtoes
    lowerback upperback
    upperback thorax
    thorax lowerneck lclavicle rclavicle
    lowerneck upperneck
    upperneck head
    lclavicle lhumerus
    lhumerus lradius
    lradius lwrist
    lwrist lhand lthumb
    lhand lfingers
    rclavicle rhumerus
    rhumerus rradius
    rradius rwrist
    rwrist rhand rthumb
    rhand rfingers
  end

#!OML:ASF H:\Bending\Project 1\Capture day 1\Session 1\Subject.ASF
:FULLY-SPECIFIED
:DEGREES
390
root -10.1156 18.0236 -16.3493 -119.644 87.4831 -125.401
lowerback 3.83806 -0.342502 1.77541
upperback -1.73639 -0.261189 2.02397
thorax -3.94307 -0.138069 1.11009
lowerneck -22.4279 -3.68578 -5.93782
upperneck 31.0973 -3.23998 1.93664
head 14.6612 -1.63744 1.24324
rclavicle 4.39811e-015 5.96354e-015
rhumerus -36.8003 -25.7335 -66.9764
rradius 25.8052
rwrist 14.2373
rhand -13.7261 -22.3363
rfingers 7.12502
rthumb 12.3932 -51.9489
lclavicle 4.39811e-015 5.96354e-015
lhumerus -37.8583 -2.41347 91.5427
lradius 33.1544
lwrist 24.5831
lhand -31.2661 9.10549
lfingers 7.12502
lthumb -4.54005 39.0368
rfemur 2.83879 -1.22681 16.1901
rtibia 2.54444e-014
rfoot -9.12001 -14.7725
rtoes 1.49869
lfemur -10.0664 -22.4183 -10.3652
ltibia 21.9322
lfoot -26.5805 18.2122
ltoes 0.751753
391
root -10.1175 18.0235 -16.3477 -118.345 87.483 -124.064
lowerback 3.91438 -0.374505 1.76956
upperback -1.75193 -0.299971 2.05043
thorax -4.00205 -0.156882 1.14434
lowerneck -22.3748 -3.68457 -6.01299
upperneck 31.0013 -3.27869 2.11108
head 14.6135 -1.63878 1.31997
rclavicle 2.36057e-015 -2.14687e-014
rhumerus -36.6232 -24.9015 -67.5717
rradius 25.8487
rwrist 13.5434
rhand -13.9212 -22.5152
rfingers 7.12502
rthumb 12.2051 -52.1391
lclavicle 2.36057e-015 -2.14687e-014
lhumerus -37.7042 -2.07348 91.4033
lradius 32.8809
lwrist 24.1425
lhand -31.268 9.03631
lfingers 7.12502
lthumb -4.54189 38.9676
rfemur 2.86301 -1.1712 16.24
rtibia -7.95139e-015
rfoot -9.09562 -14.7997
rtoes 1.23243
lfemur -10.0184 -22.0784 -10.33
ltibia 21.9215
lfoot -26.3984 18.0177
ltoes 0.327162
392
root -10.1178 18.0227 -16.3462 -116.708 87.481 -122.372
lowerback 3.99001 -0.407279 1.78209
upperback -1.76861 -0.339427 2.06267
thorax -4.06197 -0.176771 1.15375
lowerneck -22.2999 -3.66627 -6.04019
upperneck 30.9086 -3.31073 2.28221
head 14.5609 -1.63184 1.38862
rclavicle -1.59028e-015 5.1684e-015
rhumerus -36.4585 -23.9762 -68.2496
rradius 25.8841
rwrist 12.8638
rhand -14.3157 -22.8357
rfingers 7.12502
rthumb 11.8247 -52.4819
lclavicle -1.59028e-015 5.1684e-015
lhumerus -37.5886 -1.69347 91.2064
lradius 32.6575
lwrist 23.6776
lhand -31.2499 8.97067
lfingers 7.12502
lthumb -4.52445 38.9023
rfemur 2.91076 -1.10129 16.2938
rtibia 1.27222e-014
rfoot -9.10754 -14.7975
rtoes 1.36368
lfemur -9.94231 -21.7554 -10.2989
ltibia 21.9157
lfoot -26.2414 17.8239
ltoes 0.134767
393
root -10.116 18.0212 -16.3457 -114.824 87.503 -120.422
lowerback 4.05389 -0.429707 1.80031
upperback -1.78795 -0.36637 2.04969
thorax -4.11827 -0.1911 1.13299
lowerneck -22.2071 -3.63634 -6.02858
upperneck 30.826 -3.33987 2.4505
head 14.5077 -1.61923 1.45025
rclavicle -1.49089e-016 -5.96354e-015
rhumerus -36.3429 -23.2179 -68.8763
rradius 25.8815
rwrist 12.4493
rhand -14.8185 -23.2235
rfingers 7.12502
rthumb 11.3398 -52.897
lclavicle -1.49089e-016 -5.96354e-015
lhumerus -37.5204 -1.3482 90.9831
lradius 32.494
lwrist 23.2515
lhand -31.2257 8.9035
lfingers 7.12502
lthumb -4.5011 38.8357
rfemur 2.97134 -1.01044 16.3181
rtibia -1.59028e-014
rfoot -9.14861 -14.7765
rtoes 1.75933
lfemur -9.83922 -21.4808 -10.3046
ltibia 21.9077
lfoot -26.1254 17.6746
ltoes 0.121353
394
root -10.1124 18.0193 -16.3466 -112.845 87.5714 -118.384
lowerback 4.09526 -0.433426 1.80085
upperback -1.81424 -0.371434 2.00893
thorax -4.16918 -0.194679 1.09165
lowerneck -22.1043 -3.60641 -6.01681
upperneck 30.7585 -3.37416 2.63569
head 14.46 -1.60611 1.518
rclavicle 3.27995e-015 -2.06736e-014
rhumerus -36.2876 -22.7849 -69.3555
rradius 25.8202
rwrist 12.4588
rhand -15.2586 -23.5492
rfingers 7.12502
rthumb 10.9153 -53.2455
lclavicle 3.27995e-015 -2.06736e-014
lhumerus -37.5018 -1.09997 90.7788
lradius 32.3943
lwrist 22.9091
lhand -31.2154 8.82818
lfingers 7.12502
lthumb -4.49116 38.7606
rfemur 3.02829 -0.899802 16.2842
rtibia -1.27222e-014
rfoot -9.20419 -14.7484
rtoes 2.22554
lfemur -9.72182 -21.2459 -10.3718
ltibia 21.8874
lfoot -26.0344 17.5889
ltoes 0.0981539
395
root -10.1073 18.0177 -16.3488 -110.882 87.6967 -116.385
lowerback 4.10672 -0.415114 1.76231
upperback -1.85352 -0.351269 1.9457
thorax -4.21658 -0.185156 1.04688
lowerneck -21.9986 -3.58994 -6.05545
upperneck 30.707 -3.42432 2.86942
head 14.4224 -1.59856 1.61138
rclavicle -9.51682e-015 1.23246e-014
rhumerus -36.282 -22.6305 -69.6815
rradius 25.7094
rwrist 12.8501
rhand -15.4588 -23.6894
rfingers 7.12502
rthumb 10.7222 -53.3958
lclavicle -9.51682e-015 1.23246e-014
lhumerus -37.5269 -0.979305 90.6329
lradius 32.3512
lwrist 22.6514
lhand -31.2341 8.73809
lfingers 7.12502
lthumb -4.50922 38.6701
rfemur 3.06308 -0.776106 16.1801
rtibia -2.8625e-014
rfoot -9.25436 -14.7226
rtoes 2.5784
lfemur -9.61026 -21.0072 -10.5051
ltibia 21.846
lfoot -25.9324 17.5489
ltoes -0.130949
396
root -10.1014 18.0172 -16.3515 -108.92 87.8712 -114.422
lowerback 4.08589 -0.377147 1.67981
upperback -1.91135 -0.308687 1.86912
thorax -4.26478 -0.163557 1.01106
lowerneck -21.8929 -3.5961 -6.17921
upperneck 30.668 -3.49946 3.17705
head 14.396 -1.60103 1.74498
rclavicle -3.08116e-015 1.07344e-014
rhumerus -36.3022 -22.5254 -69.9418
rradius 25.5876
rwrist 13.3901
rhand -15.3146 -23.5889
rfingers 7.12502
rthumb 10.8613 -53.288
lclavicle -3.08116e-015 1.07344e-014
lhumerus -37.5826 -0.977559 90.5599
lradius 32.3458
lwrist 22.4338
lhand -31.2826 8.62841
lfingers 7.12502
lthumb -4.55598 38.5594
rfemur 3.06018 -0.647688 16.0174
rtibia 0
rfoot -9.27908 -14.7057
rtoes 2.70251
lfemur -9.52586 -20.7064 -10.6852
ltibia 21.7807
lfoot -25.782 17.5036
ltoes -0.647932
397
root -10.0951 18.0184 -16.3545 -106.762 88.0697 -112.302
lowerback 4.03528 -0.326572 1.572
upperback -1.98998 -0.251213 1.78757
thorax -4.31768 -0.133864 0.983064
lowerneck -21.7852 -3.62478 -6.3849
upperneck 30.635 -3.60157 3.5594
head 14.378 -1.61403 1.91824
rclavicle 7.95139e-016 -3.18055e-015
rhumerus -36.3223 -22.2031 -70.2623
rradius 25.4981
rwrist 13.7907
rhand -14.8424 -23.2873
rfingers 7.12502
rthumb 11.3167 -52.962
lclavicle 7.95139e-016 -3.18055e-015
lhumerus -37.6513 -1.05501 90.5422
lradius 32.35
lwrist 22.1889
lhand -31.3457 8.49813
lfingers 7.12502
lthumb -4.61696 38.4278
rfemur 3.01265 -0.520476 15.8288
rtibia -1.11319e-014
rfoot -9.26684 -14.7005
rtoes 2.58948
lfemur -9.48356 -20.2987 -10.8742
ltibia 21.6987
lfoot -25.565 17.3911
ltoes -1.37081
398
root -10.089 18.0211 -16.3575 -104.044 88.2568 -109.656
lowerback 3.96122 -0.273367 1.4741
upperback -2.08636 -0.189487 1.70671
thorax -4.37586 -0.102152 0.949852
lowerneck -21.6735 -3.66472 -6.62592
upperneck 30.6032 -3.72027 3.98078
head 14.3637 -1.63283 2.1106
rclavicle 1.06847e-015 -1.98785e-015
rhumerus -36.3282 -21.541 -70.7204
rradius 25.4592
rwrist 13.8951
rhand -14.176 -22.896
rfingers 7.12502
rthumb 11.9594 -52.5344
lclavicle 1.06847e-015 -1.98785e-015
lhumerus -37.7147 -1.15358 90.5367
lradius 32.3347
lwrist 21.8586
lhand -31.4022 8.3509
lfingers 7.12502
lthumb -4.67151 38.2794
rfemur 2.92581 -0.396034 15.6555
rtibia 1.59028e-014
rfoot -9.22265 -14.7048
rtoes 2.34316
lfemur -9.48652 -19.7748 -11.031
ltibia 21.6166
lfoot -25.2927 17.168
ltoes -2.09514
399
root -10.083 18.0248 -16.3604 -100.382 88.3986 -106.083
lowerback 3.87203 -0.227933 1.42212
upperback -2.19206 -0.135006 1.63018
thorax -4.43534 -0.0750928 0.895918
lowerneck -21.562 -3.69716 -6.83043
upperneck 30.5741 -3.83303 4.37637
head 14.3495 -1.64862 2.28742
rclavicle -7.20594e-016 -3.97569e-016
rhumerus -36.3224 -20.66 -71.2864
rradius 25.4452
rwrist 13.79
rhand -13.5128 -22.5372
rfingers 7.12502
rthumb 12.5989 -52.1373
lclavicle -7.20594e-016 -3.97569e-016
lhumerus -37.7586 -1.21545 90.495
lradius 32.2788
lwrist 21.4223
lhand -31.4399 8.19463
lfingers 7.12502
lthumb -4.70789 38.1223
rfemur 2.81701 -0.27194 15.5324
rtibia -7.95139e-015
rfoot -9.16915 -14.7119
rtoes 2.14109
lfemur -9.52468 -19.1669 -11.126
ltibia 21.5553
lfoot -25.0014 16.8311
ltoes -2.60345
400
root -10.0768 18.0285 -16.3635 -95.6747 88.4736 -101.46
lowerback 3.77684 -0.198039 1.43537
upperback -2.29514 -0.0970001 1.56158
thorax -4.48877 -0.0578718 0.814838
lowerneck -21.4633 -3.70388 -6.93519
upperneck 30.5577 -3.91211 4.67602
head 14.3367 -1.65192 2.41433
rclavicle 3.72721e-016 1.19271e-015
rhumerus -36.3086 -19.8561 -71.8416
rradius 25.3928
rwrist 13.7482
rhand -13.0317 -22.2816
rfingers 7.12502
rthumb 13.0626 -51.8526
lclavicle 3.72721e-016 1.19271e-015
lhumerus -37.7765 -1.19767 90.3855
lradius 32.1765
lwrist 20.9053
lhand -31.4705 8.04062
lfingers 7.12502
lthumb -4.73751 37.9677
rfemur 2.71144 -0.143645 15.4754
rtibia -1.11319e-014
rfoot -9.13732 -14.7134
rtoes 2.15192
lfemur -9.57684 -18.5322 -11.1516
ltibia 21.5312
lfoot -24.7331 16.4198
ltoes -2.78538
401
root -10.0699 18.0311 -16.3668 -90.2827 88.4796 -96.127
lowerback 3.68481 -0.18617 1.50824
upperback -2.38346 -0.0791994 1.50527
thorax -4.52868 -0.0522217 0.714524
lowerneck -21.3951 -3.67565 -6.91447
upperneck 30.5683 -3.93553 4.83052
head 14.3313 -1.63702 2.47091
rclavicle -3.47873e-016 -3.57812e-015
rhumerus -36.2796 -19.3993 -72.264
rradius 25.2424
rwrist 14.0255
rhand -12.8252 -22.1213
rfingers 7.12502
rthumb 13.2617 -51.6794
lclavicle -3.47873e-016 -3.57812e-015
lhumerus -37.7711 -1.08293 90.2079
lradius 32.0383
lwrist 20.3671
lhand -31.5312 7.90333
lfingers 7.12502
lthumb -4.7961 37.829
rfemur 2.63509 -0.0068965 15.4779
rtibia -1.43125e-014
rfoot -9.15127 -14.703
rtoes 2.45195
lfemur -9.61605 -17.9279 -11.1236
ltibia 21.5492
lfoot -24.5164 15.9993
ltoes -2.6986
402
root -10.0619 18.0321 -16.3702 -84.7541 88.4336 -90.6172
lowerback 3.60439 -0.187957 1.61321
upperback -2.44812 -0.0774194 1.46495
thorax -4.55062 -0.0552279 0.613894
lowerneck -21.3707 -3.6172 -6.79388
upperneck 30.6153 -3.8977 4.83417
head 14.3402 -1.60519 2.46035
rclavicle -7.57867e-016 1.23246e-014
rhumerus -36.225 -19.3158 -72.5267
rradius 24.9968
rwrist 14.6331
rhand -12.875 -21.9946
rfingers 7.12502
rthumb 13.2137 -51.5558
lclavicle -7.57867e-016 1.23246e-014
lhumerus -37.7513 -0.880313 89.9917
lradius 31.885
lwrist 19.8732
lhand -31.6709 7.79815
lfingers 7.12502
lthumb -4.93099 37.7208
rfemur 2.60706 0.141016 15.516
rtibia 3.18055e-015
rfoot -9.21448 -14.6803
rtoes 2.97843
lfemur -9.61683 -17.3866 -11.0735
ltibia 21.6004
lfoot -24.3568 15.6297
ltoes -2.53221
403
root -10.0527 18.0316 -16.3731 -79.3995 88.3621 -85.2347
lowerback 3.54254 -0.193005 1.71634
upperback -2.48565 -0.0797367 1.44129
thorax -4.55489 -0.0599129 0.531751
lowerneck -21.3917 -3.54576 -6.63911
upperneck 30.6958 -3.81341 4.72903
head 14.3669 -1.56459 2.40836
rclavicle 3.10601e-015 -5.1684e-015
rhumerus -36.1395 -19.285 -72.7564
rradius 24.7513
rwrist 15.2229
rhand -13.0785 -21.8499
rfingers 7.12502
rthumb 13.0176 -51.4237
lclavicle 3.10601e-015 -5.1684e-015
lhumerus -37.727 -0.619691 89.7802
lradius 31.7372
lwrist 19.4695
lhand -31.9254 7.73563
lfingers 7.12502
lthumb -5.17674 37.6524
rfemur 2.63447 0.300755 15.5615
rtibia 7.95139e-015
rfoot -9.30541 -14.6524
rtoes 3.54595
lfemur -9.56245 -16.9084 -11.0344
ltibia 21.6676
lfoot -24.2391 15.3418
ltoes -2.49632
